# xmcd CD database file
#
# Track frame offsets:
#	150
#	11322
#	23623
#	38134
#	52592
#	74793
#	93765
#	123574
#	138199
#	159465
#	173210
#	190837
#	204036
#	218180
#	230936
#	238593
#	247478
#	260000
#	272073
#	293825
#	306977
#
# Disc length: 4293 seconds
#
# Revision: 0
# Processed by: cddbd v1.5.2PL0 Copyright (c) Steve Scherf et al.
# Submitted via: CDex 1.51
#
DISCID=2f10c315
DTITLE=The Ladies in Jazz - CD4 - The Ladies in Jazz - CD4
DYEAR=1900
DGENRE=Jazz
TTITLE0=No moon at all-Anita O'Day
TTITLE1=The way you look tonight-Batty Carter
TTITLE2=Wath a little moonlight can do-Billie Holiday
TTITLE3=A women alone with the blues-Peggy Lee
TTITLE4=It's crazy-Sarah Vaugahn
TTITLE5=Gone with the wind-Betty Carter
TTITLE6=Blue monk-Abbey Lincoln
TTITLE7=Am I blue-Dinah Washington
TTITLE8=Yor're not that kind-Sarah Vaughan
TTITLE9=Preview-Ella Fizgerald
TTITLE10=I can't get started-Anita O'Day
TTITLE11=I only have eyes for you-Billie Holiday
TTITLE12=Black Coffee-Peggy Lee
TTITLE13=I'll see you in my dreams-Anita O'Day
TTITLE14=Thou swell-Betty Carter
TTITLE15=Let's fall in love-Betty Carter
TTITLE16=Blue lou-Ella Fitzgerald
TTITLE17=He's a tramp-Peggy Lee
TTITLE18=Embraceable you-Sarah Vaughan
TTITLE19=End of a beatiful friendship-Carmen McRea
TTITLE20=The lady is a tramp-Ella Fitzgerald
EXTD=
EXTT0=
EXTT1=
EXTT2=
EXTT3=
EXTT4=
EXTT5=
EXTT6=
EXTT7=
EXTT8=
EXTT9=
EXTT10=
EXTT11=
EXTT12=
EXTT13=
EXTT14=
EXTT15=
EXTT16=
EXTT17=
EXTT18=
EXTT19=
EXTT20=
PLAYORDER=
